# xmcd
#
# Track frame offsets:
#	150
#	15787
#	29590
#	42712
#	58177
#	73442
#	88022
#	103407
#	119747
#	131340
#
# Disc length: 1911 seconds
#
# Revision: 2
# Processed by: cddbd v1.5.2PL0 Copyright (c) Steve Scherf et al.
# Submitted via: audiograbber 1.83.01
#
DISCID=9707750a
DTITLE=Wynette, Tammy - Next To You
DYEAR=1989
DGENRE=Country
TTITLE0=Next To You
TTITLE1=I'm So Afraid of Losing You Again
TTITLE2=You Left Memories Layin' (All Over The Place)
TTITLE3=When A Girl Becomes A Wife
TTITLE4=If You Let Him Drive You Crazy (He Will)
TTITLE5=Note, The
TTITLE6=Thank The Cowboy For The Ride
TTITLE7=I Almost Forgot
TTITLE8=We Called It Everything But Quits
TTITLE9=Liar's Roses
EXTD=
EXTT0=
EXTT1=
EXTT2=
EXTT3=
EXTT4=
EXTT5=
EXTT6=
EXTT7=
EXTT8=
EXTT9=
PLAYORDER=
